<svg id="Слой_3" data-name="Слой 3" xmlns="http://www.w3.org/2000/svg" xmlns:xlink="http://www.w3.org/1999/xlink" viewBox="0 0 735.47 210.67"><defs><style>.cls-1{fill:none;}.cls-2{fill:#e0587f;}.cls-3{isolation:isolate;}.cls-4{clip-path:url(#clip-path);}.cls-5{clip-path:url(#clip-path-2);}.cls-6{clip-path:url(#clip-path-3);}.cls-7{fill:#42bae0;}.cls-8{clip-path:url(#clip-path-4);}.cls-9{clip-path:url(#clip-path-5);}.cls-10{clip-path:url(#clip-path-6);}.cls-11{clip-path:url(#clip-path-7);}.cls-12{clip-path:url(#clip-path-8);}.cls-13{clip-path:url(#clip-path-9);}.cls-14{clip-path:url(#clip-path-10);}.cls-15{clip-path:url(#clip-path-11);}.cls-16{clip-path:url(#clip-path-12);}.cls-17{clip-path:url(#clip-path-13);}.cls-18{clip-path:url(#clip-path-14);}.cls-19{clip-path:url(#clip-path-15);}.cls-20{clip-path:url(#clip-path-16);}.cls-21{clip-path:url(#clip-path-17);}.cls-22{clip-path:url(#clip-path-18);}.cls-23{fill:#9d9d9d;}.cls-24{clip-path:url(#clip-path-19);}.cls-25{clip-path:url(#clip-path-20);}</style><clipPath id="clip-path" transform="translate(-521.82 -357.24)"><path class="cls-1" d="M550.64,400.13,567,389.56a29.23,29.23,0,0,1,4.74-2.46q7.53-3.17,19.58-3.11a75.58,75.58,0,0,1,20,2.93,70.24,70.24,0,0,1,20,9.27L615,406.77a70.54,70.54,0,0,0-20-9.28,75.56,75.56,0,0,0-20-2.92q-12.06,0-19.58,3.1A30.9,30.9,0,0,0,550.64,400.13Z"/></clipPath><clipPath id="clip-path-2" transform="translate(-521.82 -357.24)"><path class="cls-2" d="M621.14,494.06l-16.38,10.58a18.3,18.3,0,0,0,5.62-5.48,18.83,18.83,0,0,0,2.86-11.73,17.64,17.64,0,0,0-5.65-12.31,39.08,39.08,0,0,0-13-7.56,143.42,143.42,0,0,0-17.19-5c-6.22-1.43-12.51-3.12-18.83-5a87,87,0,0,1-17.45-7.36,39.16,39.16,0,0,1-13.18-12q-5.24-7.55-6-19.4a38.11,38.11,0,0,1,4.36-21,34.35,34.35,0,0,1,12-12.63l16.37-10.57a34.3,34.3,0,0,0-12,12.62,38,38,0,0,0-4.36,21q.83,11.87,6,19.39a39.09,39.09,0,0,0,13.18,12A87.54,87.54,0,0,0,575,446.91q9.48,2.89,18.83,5A143.38,143.38,0,0,1,611,457a39.34,39.34,0,0,1,13,7.55,17.66,17.66,0,0,1,5.65,12.31,18.88,18.88,0,0,1-2.86,11.74A18.39,18.39,0,0,1,621.14,494.06Z"/></clipPath><clipPath id="clip-path-3" transform="translate(-521.82 -357.24)"><path class="cls-2" d="M633.15,508.92,616.77,519.5a52,52,0,0,1-5.29,3q-12,5.77-30.73,5.71a97.88,97.88,0,0,1-31.6-5.3q-15.25-5.24-24.41-13.53l16.38-10.58q9.15,8.3,24.41,13.54a97.6,97.6,0,0,0,31.6,5.29q18.78.07,30.73-5.71A50.18,50.18,0,0,0,633.15,508.92Z"/></clipPath><clipPath id="clip-path-4" transform="translate(-521.82 -357.24)"><path class="cls-1" d="M947.91,437.7l16.38-10.58c.29-.19.59-.37.89-.55a35.17,35.17,0,0,1,18.64-4.81,36.67,36.67,0,0,1,30.52,16.2L998,448.54a36.67,36.67,0,0,0-30.52-16.2,35.19,35.19,0,0,0-18.64,4.8Z"/></clipPath><clipPath id="clip-path-5" transform="translate(-521.82 -357.24)"><path class="cls-1" d="M1007.55,495.67l-16.38,10.57a31.14,31.14,0,0,0,10-10.91l16.38-10.57A31.23,31.23,0,0,1,1007.55,495.67Z"/></clipPath><clipPath id="clip-path-6" transform="translate(-521.82 -357.24)"><path class="cls-1" d="M1018.84,511l-16.37,10.58q-1.12.72-2.31,1.38-11.1,6.21-25.81,6.16a61.47,61.47,0,0,1-30-7.51,59.64,59.64,0,0,1-21.72-20.4,62.23,62.23,0,0,1-9.41-29.67q-1.15-16.72,5.3-29.62A47.31,47.31,0,0,1,935.39,423l16.38-10.57a47.25,47.25,0,0,0-16.88,18.91q-6.46,12.89-5.3,29.61A62.2,62.2,0,0,0,939,490.62,59.47,59.47,0,0,0,960.72,511a61.44,61.44,0,0,0,30,7.51q14.71,0,25.81-6.15C1017.33,511.94,1018.1,511.47,1018.84,511Z"/></clipPath><clipPath id="clip-path-7" transform="translate(-521.82 -357.24)"><path class="cls-2" d="M888.16,494.44,871.78,505a35.17,35.17,0,0,0,8.33-7.56l16.38-10.57A35.8,35.8,0,0,1,888.16,494.44Z"/></clipPath><clipPath id="clip-path-8" transform="translate(-521.82 -357.24)"><path class="cls-1" d="M821.49,436.26l16.37-10.57.48-.3a32.88,32.88,0,0,1,17.83-4.71,36.42,36.42,0,0,1,18.61,4.84,37.33,37.33,0,0,1,13.27,13.27,39.49,39.49,0,0,1,5.09,14.2l-16.38,10.58a39.61,39.61,0,0,0-5.09-14.21,37.41,37.41,0,0,0-13.27-13.27,36.42,36.42,0,0,0-18.61-4.83A32.88,32.88,0,0,0,822,436Z"/></clipPath><clipPath id="clip-path-9" transform="translate(-521.82 -357.24)"><path class="cls-1" d="M897.44,510,881.07,520.6a46.71,46.71,0,0,1-6.57,3.51,59.21,59.21,0,0,1-24.08,4.57q-17.35-.06-31-7.52a58.27,58.27,0,0,1-21.83-20.4,63,63,0,0,1-9.3-29.66q-1.15-16.74,5-29.62a46.54,46.54,0,0,1,17-19.53l16.38-10.58a46.54,46.54,0,0,0-17,19.53q-6.15,12.9-5,29.62a62.91,62.91,0,0,0,9.3,29.67,58.35,58.35,0,0,0,21.83,20.4q13.68,7.45,31,7.51a59.21,59.21,0,0,0,24.08-4.57A44.11,44.11,0,0,0,897.44,510Z"/></clipPath><clipPath id="clip-path-10" transform="translate(-521.82 -357.24)"><path class="cls-1" d="M693.19,436.69l16.38-10.57.7-.44a34,34,0,0,1,18.14-4.81,38.19,38.19,0,0,1,19,4.94,38.8,38.8,0,0,1,14,13.71,45.31,45.31,0,0,1,6.25,20.87q.81,11.87-3.36,20.84L748,491.81q4.17-9,3.36-20.84a45.35,45.35,0,0,0-6.25-20.88,38.69,38.69,0,0,0-14-13.7,38,38,0,0,0-19-4.94,33.86,33.86,0,0,0-18.14,4.81Z"/></clipPath><clipPath id="clip-path-11" transform="translate(-521.82 -357.24)"><path class="cls-1" d="M752.9,494.64l-16.38,10.57A31.11,31.11,0,0,0,748,491.81l16.38-10.58A31.2,31.2,0,0,1,752.9,494.64Z"/></clipPath><clipPath id="clip-path-12" transform="translate(-521.82 -357.24)"><path class="cls-2" d="M686.59,420.72,703,410.14a38.18,38.18,0,0,0-11.45,11.6l-16.38,10.57A38.15,38.15,0,0,1,686.59,420.72Z"/></clipPath><clipPath id="clip-path-13" transform="translate(-521.82 -357.24)"><path class="cls-1" d="M765.51,509.87l-16.38,10.58-1.08.68q-11.74,7.15-27.68,7.09a50.56,50.56,0,0,1-25-6.54,48.7,48.7,0,0,1-14-11.86l16.38-10.58a48.74,48.74,0,0,0,14,11.87,50.67,50.67,0,0,0,25,6.54q15.91.06,27.68-7.1Z"/></clipPath><clipPath id="clip-path-14" transform="translate(-521.82 -357.24)"><path class="cls-1" d="M1066.17,381.85l-16.38,10.58a12.64,12.64,0,0,1-7,1.85,13.72,13.72,0,0,1-9.75-3.84l16.38-10.58a13.72,13.72,0,0,0,9.75,3.85A12.56,12.56,0,0,0,1066.17,381.85Z"/></clipPath><clipPath id="clip-path-15" transform="translate(-521.82 -357.24)"><path class="cls-1" d="M1034,369.7l16.38-10.58a12,12,0,0,0-5.36,11.42,13.69,13.69,0,0,0,4.42,9.32L1033,390.44a13.69,13.69,0,0,1-4.42-9.33,12.1,12.1,0,0,1,3.11-9.51A11.82,11.82,0,0,1,1034,369.7Z"/></clipPath><clipPath id="clip-path-16" transform="translate(-521.82 -357.24)"><path class="cls-1" d="M1168.46,498.4,1152.08,509A25.87,25.87,0,0,0,1163,494.2l16.38-10.58A25.87,25.87,0,0,1,1168.46,498.4Z"/></clipPath><clipPath id="clip-path-17" transform="translate(-521.82 -357.24)"><path class="cls-1" d="M1101.43,440.67l16.38-10.57a47.88,47.88,0,0,1,9.76-4.77,53.7,53.7,0,0,1,18.56-3.22q14.49.06,22.24,7.18t8.63,20l-16.38,10.58q-.9-12.91-8.63-20t-22.24-7.17a53.7,53.7,0,0,0-18.56,3.22A48.12,48.12,0,0,0,1101.43,440.67Z"/></clipPath><clipPath id="clip-path-18" transform="translate(-521.82 -357.24)"><path class="cls-2" d="M1092.69,425.12l16.38-10.58a46.89,46.89,0,0,0-5.63,4.25l-16.38,10.58A45.86,45.86,0,0,1,1092.69,425.12Z"/></clipPath><clipPath id="clip-path-19" transform="translate(-521.82 -357.24)"><path class="cls-1" d="M1114.19,481.84l16.38-10.57q5.34-3.47,17.51-3.42l-16.38,10.58Q1119.53,478.39,1114.19,481.84Z"/></clipPath><clipPath id="clip-path-20" transform="translate(-521.82 -357.24)"><path class="cls-1" d="M1172.28,512.93l-16.38,10.58-.64.4q-9.4,5.8-24.3,5.74a51.67,51.67,0,0,1-21.42-4.3,36.36,36.36,0,0,1-14.81-11.8,32.44,32.44,0,0,1-6.08-17.07,31.52,31.52,0,0,1,3-16.5,24.38,24.38,0,0,1,8.9-9.61L1117,459.79a24.4,24.4,0,0,0-8.9,9.62,31.5,31.5,0,0,0-3,16.5,32.41,32.41,0,0,0,6.08,17.06,36.25,36.25,0,0,0,14.8,11.8,51.59,51.59,0,0,0,21.43,4.3q14.9.06,24.3-5.73Z"/></clipPath></defs><g class="cls-3"><g class="cls-3"><g class="cls-4"><g class="cls-3"><path class="cls-2" d="M631.37,396.19,615,406.77a70.54,70.54,0,0,0-20-9.28,75.56,75.56,0,0,0-20-2.92q-12.06,0-19.58,3.1a30.9,30.9,0,0,0-4.74,2.46L567,389.56a29.23,29.23,0,0,1,4.74-2.46q7.53-3.17,19.58-3.11a75.58,75.58,0,0,1,20,2.93,70.24,70.24,0,0,1,20,9.27" transform="translate(-521.82 -357.24)"/></g></g></g><g class="cls-3"><path class="cls-2" d="M621.14,494.06l-16.38,10.58a18.3,18.3,0,0,0,5.62-5.48,18.83,18.83,0,0,0,2.86-11.73,17.64,17.64,0,0,0-5.65-12.31,39.08,39.08,0,0,0-13-7.56,143.42,143.42,0,0,0-17.19-5c-6.22-1.43-12.51-3.12-18.83-5a87,87,0,0,1-17.45-7.36,39.16,39.16,0,0,1-13.18-12q-5.24-7.55-6-19.4a38.11,38.11,0,0,1,4.36-21,34.35,34.35,0,0,1,12-12.63l16.37-10.57a34.3,34.3,0,0,0-12,12.62,38,38,0,0,0-4.36,21q.83,11.87,6,19.39a39.09,39.09,0,0,0,13.18,12A87.54,87.54,0,0,0,575,446.91q9.48,2.89,18.83,5A143.38,143.38,0,0,1,611,457a39.34,39.34,0,0,1,13,7.55,17.66,17.66,0,0,1,5.65,12.31,18.88,18.88,0,0,1-2.86,11.74A18.39,18.39,0,0,1,621.14,494.06Z" transform="translate(-521.82 -357.24)"/><g class="cls-5"><g class="cls-3"><path class="cls-2" d="M621.14,494.06l-16.38,10.58a18.3,18.3,0,0,0,5.62-5.48,18.83,18.83,0,0,0,2.86-11.73,17.64,17.64,0,0,0-5.65-12.31,39.08,39.08,0,0,0-13-7.56,143.42,143.42,0,0,0-17.19-5c-6.22-1.43-12.51-3.12-18.83-5a87,87,0,0,1-17.45-7.36,39.16,39.16,0,0,1-13.18-12q-5.24-7.55-6-19.4a38.11,38.11,0,0,1,4.36-21,34.35,34.35,0,0,1,12-12.63l16.37-10.57a34.3,34.3,0,0,0-12,12.62,38,38,0,0,0-4.36,21q.83,11.87,6,19.39a39.09,39.09,0,0,0,13.18,12A87.54,87.54,0,0,0,575,446.91q9.48,2.89,18.83,5A143.38,143.38,0,0,1,611,457a39.34,39.34,0,0,1,13,7.55,17.66,17.66,0,0,1,5.65,12.31,18.88,18.88,0,0,1-2.86,11.74,18.39,18.39,0,0,1-5.62,5.47" transform="translate(-521.82 -357.24)"/></g></g></g><polygon class="cls-2" points="19.3 141.53 2.92 152.1 9.33 135.62 25.71 125.04 19.3 141.53"/><g class="cls-3"><path class="cls-2" d="M633.15,508.92,616.77,519.5a52,52,0,0,1-5.29,3q-12,5.77-30.73,5.71a97.88,97.88,0,0,1-31.6-5.3q-15.25-5.24-24.41-13.53l16.38-10.58q9.15,8.3,24.41,13.54a97.6,97.6,0,0,0,31.6,5.29q18.78.07,30.73-5.71A50.18,50.18,0,0,0,633.15,508.92Z" transform="translate(-521.82 -357.24)"/><g class="cls-6"><g class="cls-3"><path class="cls-2" d="M633.15,508.92,616.77,519.5a52,52,0,0,1-5.29,3q-12,5.77-30.73,5.71a97.88,97.88,0,0,1-31.6-5.3q-15.25-5.24-24.41-13.53l16.38-10.58q9.15,8.3,24.41,13.54a97.6,97.6,0,0,0,31.6,5.29q18.78.07,30.73-5.71a50.18,50.18,0,0,0,5.29-3" transform="translate(-521.82 -357.24)"/></g></g></g><path class="cls-7" d="M590.1,366A95,95,0,0,1,615,369.47a73.27,73.27,0,0,1,21.91,9.81l-5.57,16.91a70.24,70.24,0,0,0-20-9.27,75.58,75.58,0,0,0-20-2.93q-12.06,0-19.58,3.11T561,395.53a19.65,19.65,0,0,0-2.75,11.84,17.89,17.89,0,0,0,5.66,12.51,37.7,37.7,0,0,0,13,7.46,170.62,170.62,0,0,0,17.19,5q9.34,2.26,18.82,5a84,84,0,0,1,17.45,7.26,39.58,39.58,0,0,1,13.17,11.9q5.21,7.44,6,19.07a37.21,37.21,0,0,1-4.48,20.84q-5.25,9.63-17.2,15.4t-30.73,5.71a97.6,97.6,0,0,1-31.6-5.29q-15.25-5.25-24.41-13.54l6.41-16.48a72,72,0,0,0,21.68,12.35,75.43,75.43,0,0,0,26.67,5q12.45,0,20-2.91t10.87-8.1a18.88,18.88,0,0,0,2.86-11.74A17.66,17.66,0,0,0,624,464.54,39.34,39.34,0,0,0,611,457a143.38,143.38,0,0,0-17.19-5q-9.34-2.15-18.83-5a87.54,87.54,0,0,1-17.45-7.36,39.09,39.09,0,0,1-13.18-12q-5.24-7.53-6-19.39a38,38,0,0,1,4.36-21q5.16-9.62,16.9-15.39T590.1,366Z" transform="translate(-521.82 -357.24)"/></g><g class="cls-3"><polygon class="cls-2" points="536.82 160.26 520.44 170.84 512.66 58.61 529.04 48.04 536.82 160.26"/><polygon class="cls-2" points="556.42 160.33 540.04 170.91 520.44 170.84 536.82 160.26 556.42 160.33"/><polygon class="cls-7" points="536.82 160.26 529.04 48.04 548.64 48.11 556.42 160.33 536.82 160.26"/></g><g class="cls-3"><g class="cls-3"><g class="cls-8"><g class="cls-3"><path class="cls-2" d="M1014.34,438,998,448.54a36.67,36.67,0,0,0-30.52-16.2,35.19,35.19,0,0,0-18.64,4.8l-.89.56,16.38-10.58c.29-.19.59-.37.89-.55a35.17,35.17,0,0,1,18.64-4.81,36.67,36.67,0,0,1,30.52,16.2" transform="translate(-521.82 -357.24)"/></g></g></g><g class="cls-3"><g class="cls-9"><g class="cls-3"><path class="cls-2" d="M1007.55,495.67l-16.38,10.57a31.14,31.14,0,0,0,10-10.91l16.38-10.57a31.23,31.23,0,0,1-10,10.91" transform="translate(-521.82 -357.24)"/></g></g></g><g class="cls-3"><g class="cls-10"><g class="cls-3"><path class="cls-2" d="M1018.84,511l-16.37,10.58q-1.12.72-2.31,1.38-11.1,6.21-25.81,6.16a61.47,61.47,0,0,1-30-7.51,59.64,59.64,0,0,1-21.72-20.4,62.23,62.23,0,0,1-9.41-29.67q-1.15-16.72,5.3-29.62A47.31,47.31,0,0,1,935.39,423l16.38-10.57a47.25,47.25,0,0,0-16.88,18.91q-6.46,12.89-5.3,29.61A62.2,62.2,0,0,0,939,490.62,59.47,59.47,0,0,0,960.72,511a61.44,61.44,0,0,0,30,7.51q14.71,0,25.81-6.15c.79-.44,1.56-.91,2.3-1.39" transform="translate(-521.82 -357.24)"/></g></g></g><path class="cls-7" d="M982.79,404a58.38,58.38,0,0,1,26.66,6.12,46.81,46.81,0,0,1,19.11,18l-14.22,9.9a36.67,36.67,0,0,0-30.52-16.2,35.17,35.17,0,0,0-18.64,4.81,31.79,31.79,0,0,0-12.33,13.61Q948.56,449,949.39,461a45.14,45.14,0,0,0,6.36,21,38.63,38.63,0,0,0,33.55,18.74,33.91,33.91,0,0,0,16.16-3.85,30.41,30.41,0,0,0,12.13-12.13l15.57,9.79a39.18,39.18,0,0,1-16.62,17.83q-11.1,6.21-25.81,6.15a61.44,61.44,0,0,1-30-7.51A59.47,59.47,0,0,1,939,490.62,62.2,62.2,0,0,1,929.59,461q-1.15-16.72,5.3-29.61a47.42,47.42,0,0,1,18.91-20.16Q966.27,403.92,982.79,404Z" transform="translate(-521.82 -357.24)"/></g><g class="cls-3"><g class="cls-3"><path class="cls-2" d="M888.16,494.44,871.78,505a35.17,35.17,0,0,0,8.33-7.56l16.38-10.57A35.8,35.8,0,0,1,888.16,494.44Z" transform="translate(-521.82 -357.24)"/><g class="cls-11"><g class="cls-3"><path class="cls-2" d="M888.16,494.44,871.78,505a35.17,35.17,0,0,0,8.33-7.56l16.38-10.57a35.8,35.8,0,0,1-8.33,7.56" transform="translate(-521.82 -357.24)"/></g></g></g><g class="cls-3"><g class="cls-12"><g class="cls-3"><path class="cls-2" d="M893.14,453l-16.38,10.58a39.61,39.61,0,0,0-5.09-14.21,37.41,37.41,0,0,0-13.27-13.27,36.42,36.42,0,0,0-18.61-4.83A32.88,32.88,0,0,0,822,436l-.47.29,16.37-10.57.48-.3a32.88,32.88,0,0,1,17.83-4.71,36.42,36.42,0,0,1,18.61,4.84,37.33,37.33,0,0,1,13.27,13.27,39.49,39.49,0,0,1,5.09,14.2" transform="translate(-521.82 -357.24)"/></g></g></g><polygon class="cls-2" points="390.68 110.43 374.3 121 286.44 120.7 302.82 110.12 390.68 110.43"/><g class="cls-3"><g class="cls-13"><g class="cls-3"><path class="cls-2" d="M897.44,510,881.07,520.6a46.71,46.71,0,0,1-6.57,3.51,59.21,59.21,0,0,1-24.08,4.57q-17.35-.06-31-7.52a58.27,58.27,0,0,1-21.83-20.4,63,63,0,0,1-9.3-29.66q-1.15-16.74,5-29.62a46.54,46.54,0,0,1,17-19.53l16.38-10.58a46.54,46.54,0,0,0-17,19.53q-6.15,12.9-5,29.62a62.91,62.91,0,0,0,9.3,29.67,58.35,58.35,0,0,0,21.83,20.4q13.68,7.45,31,7.51a59.21,59.21,0,0,0,24.08-4.57,44.11,44.11,0,0,0,6.56-3.51" transform="translate(-521.82 -357.24)"/></g></g></g><path class="cls-7" d="M903.54,431.12q7.74,13,8.94,30.41c.06.84.1,1.84.11,3s0,2.19-.09,3.18l-87.85-.31a40.6,40.6,0,0,0,5.64,14.31,38.87,38.87,0,0,0,14.93,13.71,44.75,44.75,0,0,0,21,4.94A42,42,0,0,0,883.41,497a34.43,34.43,0,0,0,13.08-10.11L908.22,500a42.92,42.92,0,0,1-17.34,13.49,59.21,59.21,0,0,1-24.08,4.57q-17.35-.06-31-7.51a58.35,58.35,0,0,1-21.83-20.4,62.91,62.91,0,0,1-9.3-29.67q-1.15-16.72,5-29.62a46.64,46.64,0,0,1,18-20.16q11.85-7.26,27.36-7.21a55,55,0,0,1,48.56,27.59Zm-79.95,21.63,69.55.24a39.49,39.49,0,0,0-5.09-14.2,37.33,37.33,0,0,0-13.27-13.27,36.42,36.42,0,0,0-18.61-4.84,32.88,32.88,0,0,0-17.83,4.71,29.73,29.73,0,0,0-11.54,13.29,37.31,37.31,0,0,0-3.21,14.07" transform="translate(-521.82 -357.24)"/></g><g class="cls-3"><g class="cls-3"><g class="cls-14"><g class="cls-3"><path class="cls-2" d="M764.33,481.23,748,491.81q4.17-9,3.36-20.84a45.35,45.35,0,0,0-6.25-20.88,38.69,38.69,0,0,0-14-13.7,38,38,0,0,0-19-4.94,33.86,33.86,0,0,0-18.14,4.81l-.7.43,16.38-10.57.7-.44a34,34,0,0,1,18.14-4.81,38.19,38.19,0,0,1,19,4.94,38.8,38.8,0,0,1,14,13.71,45.31,45.31,0,0,1,6.25,20.87q.81,11.87-3.36,20.84" transform="translate(-521.82 -357.24)"/></g></g></g><g class="cls-3"><g class="cls-15"><g class="cls-3"><path class="cls-2" d="M752.9,494.64l-16.38,10.57A31.11,31.11,0,0,0,748,491.81l16.38-10.58a31.2,31.2,0,0,1-11.43,13.41" transform="translate(-521.82 -357.24)"/></g></g></g><g class="cls-3"><path class="cls-2" d="M686.59,420.72,703,410.14a38.18,38.18,0,0,0-11.45,11.6l-16.38,10.57A38.15,38.15,0,0,1,686.59,420.72Z" transform="translate(-521.82 -357.24)"/><g class="cls-16"><g class="cls-3"><path class="cls-2" d="M691.52,421.74l-16.38,10.57a38.15,38.15,0,0,1,11.45-11.59L703,410.14a38.18,38.18,0,0,0-11.45,11.6" transform="translate(-521.82 -357.24)"/></g></g></g><g class="cls-3"><g class="cls-17"><g class="cls-3"><path class="cls-2" d="M765.51,509.87l-16.38,10.58-1.08.68q-11.74,7.15-27.68,7.09a50.56,50.56,0,0,1-25-6.54,48.7,48.7,0,0,1-14-11.86l16.38-10.58a48.74,48.74,0,0,0,14,11.87,50.67,50.67,0,0,0,25,6.54q15.91.06,27.68-7.1l1.08-.68" transform="translate(-521.82 -357.24)"/></g></g></g><polygon class="cls-2" points="160.31 200.02 143.93 210.6 133.31 57.3 149.69 46.72 160.31 200.02"/><polygon class="cls-2" points="179.91 200.09 163.53 210.67 143.93 210.6 160.31 200.02 179.91 200.09"/><path class="cls-7" d="M778.26,430.47q8,12.84,9.23,30t-5.07,30a46.66,46.66,0,0,1-18,20.05q-11.76,7.17-27.68,7.1a50.67,50.67,0,0,1-25-6.54,48.74,48.74,0,0,1-14-11.87l4,58.09-19.61-.07L671.51,404l18.79.06,1.22,17.72a38,38,0,0,1,12.72-12.38,47,47,0,0,1,24.57-6.27,57.4,57.4,0,0,1,28.68,7.31A58.07,58.07,0,0,1,778.26,430.47Zm-13.93,50.76q4.17-9,3.36-20.84a45.31,45.31,0,0,0-6.25-20.87,38.8,38.8,0,0,0-14-13.71,38.19,38.19,0,0,0-19-4.94,34,34,0,0,0-18.14,4.81,31.37,31.37,0,0,0-12.12,13.62q-4.18,8.77-3.35,20.84A46,46,0,0,0,701,481a38.48,38.48,0,0,0,14,13.92,37.79,37.79,0,0,0,18.82,4.93,34.4,34.4,0,0,0,18.35-4.8,31.06,31.06,0,0,0,12.1-13.83" transform="translate(-521.82 -357.24)"/></g><g class="cls-3"><g class="cls-3"><g class="cls-18"><g class="cls-3"><path class="cls-2" d="M1066.17,381.85l-16.38,10.58a12.64,12.64,0,0,1-7,1.85,13.72,13.72,0,0,1-9.75-3.84l16.38-10.58a13.72,13.72,0,0,0,9.75,3.85,12.56,12.56,0,0,0,7-1.86" transform="translate(-521.82 -357.24)"/></g></g></g><g class="cls-3"><g class="cls-19"><g class="cls-3"><path class="cls-2" d="M1049.41,379.86,1033,390.44a13.69,13.69,0,0,1-4.42-9.33,12.1,12.1,0,0,1,3.11-9.51,11.82,11.82,0,0,1,2.25-1.9l16.38-10.58a12,12,0,0,0-5.36,11.42,13.69,13.69,0,0,0,4.42,9.32" transform="translate(-521.82 -357.24)"/></g></g></g><path class="cls-7" d="M1049.41,379.86a13.69,13.69,0,0,1-4.42-9.32,12.13,12.13,0,0,1,3.11-9.52,11.94,11.94,0,0,1,9.23-3.78,14,14,0,0,1,9.75,3.73,13.43,13.43,0,0,1,4.42,9.24,12.72,12.72,0,0,1-3,9.62,11.7,11.7,0,0,1-9.33,3.88A13.72,13.72,0,0,1,1049.41,379.86Z" transform="translate(-521.82 -357.24)"/></g><g class="cls-3"><polygon class="cls-2" points="655.45 96.11 639.07 106.68 638.79 102.66 655.17 92.09 655.45 96.11"/><polygon class="cls-2" points="657.55 126.38 641.17 136.96 640.09 121.29 656.46 110.72 657.55 126.38"/><polygon class="cls-2" points="679.53 160.76 663.15 171.33 644.58 171.27 660.95 160.69 679.53 160.76"/><polygon class="cls-2" points="660.95 160.69 644.58 171.27 643.55 156.54 659.93 145.96 660.95 160.69"/><g class="cls-3"><g class="cls-20"><g class="cls-3"><path class="cls-2" d="M1168.46,498.4,1152.08,509A25.87,25.87,0,0,0,1163,494.2l16.38-10.58a25.87,25.87,0,0,1-10.91,14.78" transform="translate(-521.82 -357.24)"/></g></g></g><polygon class="cls-2" points="656.46 110.72 640.09 121.29 609.87 121.19 626.25 110.61 656.46 110.72"/><g class="cls-3"><g class="cls-21"><g class="cls-3"><path class="cls-2" d="M1177,449.32l-16.38,10.58q-.9-12.91-8.63-20t-22.24-7.17a53.7,53.7,0,0,0-18.56,3.22,48.12,48.12,0,0,0-9.76,4.76l16.38-10.57a47.88,47.88,0,0,1,9.76-4.77,53.7,53.7,0,0,1,18.56-3.22q14.49.06,22.24,7.18t8.63,20" transform="translate(-521.82 -357.24)"/></g></g></g><g class="cls-3"><path class="cls-2" d="M1092.69,425.12l16.38-10.58a46.89,46.89,0,0,0-5.63,4.25l-16.38,10.58A45.86,45.86,0,0,1,1092.69,425.12Z" transform="translate(-521.82 -357.24)"/><g class="cls-22"><g class="cls-3"><path class="cls-23" d="M1103.44,418.79l-16.38,10.58a45.86,45.86,0,0,1,5.63-4.25l16.38-10.58a46.89,46.89,0,0,0-5.63,4.25" transform="translate(-521.82 -357.24)"/></g></g></g><polygon class="cls-2" points="590.84 76.83 574.46 87.4 565.24 72.13 581.62 61.55 590.84 76.83"/><g class="cls-3"><g class="cls-24"><g class="cls-3"><path class="cls-2" d="M1148.08,467.85l-16.38,10.58q-12.17,0-17.51,3.41l16.38-10.57q5.34-3.47,17.51-3.42" transform="translate(-521.82 -357.24)"/></g></g></g><g class="cls-3"><g class="cls-25"><g class="cls-3"><path class="cls-2" d="M1172.28,512.93l-16.38,10.58-.64.4q-9.4,5.8-24.3,5.74a51.67,51.67,0,0,1-21.42-4.3,36.36,36.36,0,0,1-14.81-11.8,32.44,32.44,0,0,1-6.08-17.07,31.52,31.52,0,0,1,3-16.5,24.38,24.38,0,0,1,8.9-9.61L1117,459.79a24.4,24.4,0,0,0-8.9,9.62,31.5,31.5,0,0,0-3,16.5,32.41,32.41,0,0,0,6.08,17.06,36.25,36.25,0,0,0,14.8,11.8,51.59,51.59,0,0,0,21.43,4.3q14.9.06,24.3-5.73l.64-.41" transform="translate(-521.82 -357.24)"/></g></g></g><path class="cls-7" d="M1182.23,415.89q12.82,11.26,14.42,34.35l4.7,67.76-18.57-.07-1-14.73a29.05,29.05,0,0,1-10.12,10.14q-9.41,5.79-24.3,5.73a51.59,51.59,0,0,1-21.43-4.3,36.25,36.25,0,0,1-14.8-11.8,32.41,32.41,0,0,1-6.08-17.06,31.5,31.5,0,0,1,3-16.5q3.66-7.4,12.86-11.82t25.31-4.35l31,.1-.27-4q-.9-12.92-8.63-20t-22.24-7.18a53.7,53.7,0,0,0-18.56,3.22,43.85,43.85,0,0,0-14.91,8.73l-9.22-15.27a53.57,53.57,0,0,1,19.37-10.62,78.81,78.81,0,0,1,24.35-3.62Q1169.41,404.63,1182.23,415.89Zm-2.86,67.73L1178.29,468l-30.21-.11q-14.71,0-19.46,5a15.57,15.57,0,0,0-4.25,12.26,17.34,17.34,0,0,0,7.24,13.25q6.67,5,17.9,5,11,0,19-5a25.87,25.87,0,0,0,10.91-14.78" transform="translate(-521.82 -357.24)"/></g><g class="cls-3"><polygon class="cls-2" points="735.47 160.95 719.09 171.53 699.49 171.46 715.87 160.88 735.47 160.95"/><polygon class="cls-2" points="715.87 160.88 699.49 171.46 688.6 14.34 704.98 3.76 715.87 160.88"/><polygon class="cls-7" points="724.58 3.83 735.47 160.95 715.87 160.88 704.98 3.76 724.58 3.83"/></g></svg>