<svg xmlns="http://www.w3.org/2000/svg" viewBox="0 0 907.48 303.25"><defs/><path d="M453.46 116.77a39.18 39.18 0 0 0-20.49-5.31 47.55 47.55 0 0 0-22 5.31 56.75 56.75 0 0 0-18.14 14.81 73.63 73.63 0 0 0-12.22 21.84 71.94 71.94 0 0 0 12.26 21.73 57.27 57.27 0 0 0 18.14 14.68 47.55 47.55 0 0 0 22 5.31 39.18 39.18 0 0 0 20.45-5.31 37.49 37.49 0 0 0 14-14.68 45.13 45.13 0 0 0 5-21.73 45.83 45.83 0 0 0-5-21.84 37.38 37.38 0 0 0-14-14.81Z" /><path d="M907.46.5H171.65L.86 302.76h316.6m-12-104.78q-11.24 13.95-31.47 21.6t-47.4 7.65q-27.64 0-48.63-8t-33.07-22.47a55.45 55.45 0 0 1-13.09-33.69h42.46a29.85 29.85 0 0 0 8.27 16.42q6.79 7 18.27 10.86a83.88 83.88 0 0 0 26.56 3.8q22 0 34.68-6.29t12.72-17.65a15.46 15.46 0 0 0-7.29-13.7q-7.28-4.82-27-7l-37.28-4.19q-36-3.94-52.21-16.91t-16.16-36.16q0-18.27 10.73-31.11t30.24-19.62q19.5-6.78 45.92-6.79 25.66 0 45.66 7.53t31.84 21a50.52 50.52 0 0 1 12.84 31.48h-42.48a24.94 24.94 0 0 0-7.28-14.2q-6-6-16.66-9.38a83.61 83.61 0 0 0-24.93-3.33q-20 0-31.84 5.92t-11.85 16.79a14.56 14.56 0 0 0 7 13q7 4.57 24.81 6.79l38.75 4.69q25.68 2.72 40.86 8.76t21.72 16.17q6.54 10.13 6.54 25.67a50.28 50.28 0 0 1-11.23 32.36Zm199.82-5.93a65 65 0 0 1-24.56 25.92q-15.69 9.25-36.41 9.26-19.75 0-35.43-9.14a76.94 76.94 0 0 1-26.28-25.79l-.5-.82v72.77h-41.19V83.07h41.22v31.85c.13-.2.24-.42.37-.62a75.36 75.36 0 0 1 26.41-25.8 70 70 0 0 1 35.43-9.13q20.73 0 36.41 9.26a65 65 0 0 1 24.56 25.92q8.88 16.65 8.88 38.87 0 21.97-8.88 38.63Z" /></svg>
