<svg id="Слой_4" data-name="Слой 4" xmlns="http://www.w3.org/2000/svg" viewBox="0 0 1211.79 303.25"><defs><style>.cls-1{stroke:#1d1d1b;stroke-miterlimit:10;}</style></defs><path d="M1215.28,541.37a62,62,0,0,1-13.94,31.84,76.34,76.34,0,0,1-29.5,21.48q-18,7.65-40.24,7.65-25.17,0-44.3-9.26t-29.87-26q-10.74-16.78-10.74-38.5,0-22,10.74-38.63t29.87-26.05q19.13-9.37,44.3-9.38,22.22,0,40.24,7.78a78.08,78.08,0,0,1,29.5,21.47,61.56,61.56,0,0,1,13.94,32h-41.22q-3.21-14.31-14.69-22.09t-27.77-7.78q-13.08,0-22.83,5.06a34.94,34.94,0,0,0-14.93,14.57q-5.19,9.5-5.19,23.08,0,13.32,5.19,22.83a34.86,34.86,0,0,0,14.93,14.56q9.75,5.07,22.83,5.06,16.55,0,28-8.14a34.85,34.85,0,0,0,14.44-21.48Z" transform="translate(-338.21 -374.32)"/><path d="M1258,442.14q-11.12,0-18.14-5.8a19,19,0,0,1-7-15.43q0-9.87,7-15.67t18.14-5.8q11.34,0,18.26,5.8t6.92,15.67q0,9.63-6.92,15.43T1258,442.14Zm-20.49,14.57,20.49,3.94,20.73-3.94V598.64H1237.5Z" transform="translate(-338.21 -374.32)"/><path d="M1449.29,528.54q-4,22.22-14.44,38.87a75.44,75.44,0,0,1-26.41,25.8,70.51,70.51,0,0,1-35.67,9.13q-20.49,0-36.29-9.26a63.79,63.79,0,0,1-24.56-25.91q-8.76-16.67-8.76-38.63,0-22.21,8.76-38.88a63.75,63.75,0,0,1,24.56-25.92q15.8-9.25,36.29-9.26a70.41,70.41,0,0,1,35.67,9.14A76.41,76.41,0,0,1,1435,489.41Q1445.59,506.07,1449.29,528.54Zm-104.42,0a45,45,0,0,0,5.07,21.72,37.4,37.4,0,0,0,13.94,14.68,39.18,39.18,0,0,0,20.49,5.31,46.79,46.79,0,0,0,21.84-5.31,59.24,59.24,0,0,0,18.15-14.68,70.51,70.51,0,0,0,12.34-21.72,72.12,72.12,0,0,0-12.34-21.85,58.68,58.68,0,0,0-18.15-14.81,46.79,46.79,0,0,0-21.84-5.31,39.18,39.18,0,0,0-20.49,5.31,37.29,37.29,0,0,0-13.94,14.81A45.73,45.73,0,0,0,1344.87,528.54Zm93.56,70.1-5.93-51.34,6.67-18.76L1432.5,510l5.93-51.83h42.7L1473,528.54l8.14,70.1Z" transform="translate(-338.21 -374.32)"/><path d="M1508.78,408.57H1550V598.64h-41.22Z" transform="translate(-338.21 -374.32)"/><path class="cls-1" d="M791.68,491.08a39.24,39.24,0,0,0-20.49-5.3,47.62,47.62,0,0,0-22,5.3,56.79,56.79,0,0,0-18.15,14.81,73.78,73.78,0,0,0-12.22,21.85,72,72,0,0,0,12.22,21.72,57.34,57.34,0,0,0,18.15,14.69,47.5,47.5,0,0,0,22,5.3,39.14,39.14,0,0,0,20.49-5.3,37.45,37.45,0,0,0,14-14.69,45.06,45.06,0,0,0,5.06-21.72,45.84,45.84,0,0,0-5.06-21.85A37.31,37.31,0,0,0,791.68,491.08Z" transform="translate(-338.21 -374.32)"/><path class="cls-1" d="M869.19,527.25q0-22,10.73-38.51a72.77,72.77,0,0,1,29.5-25.8q18.76-9.26,42.71-9.25,24.43,0,42,10.73a70.28,70.28,0,0,1,25,26.47l226.57-116.07H509.86L339.07,677.07H655.69L878.41,563Q869.21,547.32,869.19,527.25Zm-225.49,45q-11.24,14-31.47,21.6t-47.4,7.65q-27.65,0-48.62-8t-33.08-22.46a55.49,55.49,0,0,1-13.08-33.69H512.5a29.92,29.92,0,0,0,8.27,16.41q6.79,7,18.27,10.86a83.93,83.93,0,0,0,26.54,3.83q22,0,34.68-6.3T613,544.52a15.49,15.49,0,0,0-7.28-13.7q-7.29-4.8-27-7l-37.28-4.2q-36-3.95-52.2-16.91T473,466.52q0-18.25,10.74-31.1T514,415.8Q533.48,409,559.9,409q25.67,0,45.66,7.53t31.85,21A50.56,50.56,0,0,1,650.24,469H607.78a24.91,24.91,0,0,0-7.28-14.19q-6-6-16.66-9.38a83.59,83.59,0,0,0-24.93-3.34q-20,0-31.84,5.93t-11.85,16.78a14.56,14.56,0,0,0,7,13q7,4.58,24.81,6.79l38.76,4.69q25.66,2.72,40.85,8.76t21.72,16.17q6.54,10.13,6.54,25.67A50.19,50.19,0,0,1,643.7,572.29Zm199.82-5.92A64.88,64.88,0,0,1,819,592.29q-15.68,9.26-36.41,9.25-19.75,0-35.42-9.13a77,77,0,0,1-26.29-25.79c-.17-.27-.33-.56-.5-.83v72.78H679.12V457.39h41.22v31.85c.13-.21.25-.42.37-.63a75.44,75.44,0,0,1,26.42-25.79,69.88,69.88,0,0,1,35.42-9.13q20.73,0,36.41,9.25a64.88,64.88,0,0,1,24.56,25.92q8.88,16.67,8.88,38.88Q852.4,549.71,843.52,566.37Z" transform="translate(-338.21 -374.32)"/><path class="cls-1" d="M915,544.24l7.15-3.67h-8.56C914,541.83,914.46,543.05,915,544.24Z" transform="translate(-338.21 -374.32)"/><path class="cls-1" d="M972.61,488.74a41.73,41.73,0,0,0-20.24-4.69q-12.58,0-21.84,5.06a35.65,35.65,0,0,0-14.32,14.07,37.86,37.86,0,0,0-3.84,10h63.24l12.94-6.63a38.2,38.2,0,0,0-2.24-4.48A35,35,0,0,0,972.61,488.74Z" transform="translate(-338.21 -374.32)"/><path d="M965.48,571.24q-17.52,0-29.86-5.43a39.27,39.27,0,0,1-21.52-21.12l-36.61,18.75c.71,1.22,1.43,2.43,2.22,3.6q11.22,16.8,30.85,26t44.56,9.26A133.84,133.84,0,0,0,994,596.79a109.66,109.66,0,0,0,32.22-15.43V553.71a104.68,104.68,0,0,1-28.88,13A115.77,115.77,0,0,1,965.48,571.24Z" transform="translate(-338.21 -374.32)"/><path d="M1018.23,491.34,987.68,507a45.76,45.76,0,0,1,2.36,7h-16l-53.48,27.4h109.33q0-26.4-9.5-45.91C1019.72,494.05,1019,492.69,1018.23,491.34Z" transform="translate(-338.21 -374.32)"/></svg>