<?xml version="1.0" encoding="utf-8"?>
<!-- Generator: Adobe Illustrator 25.2.3, SVG Export Plug-In . SVG Version: 6.00 Build 0)  -->
<svg version="1.1" id="Слой_1" xmlns="http://www.w3.org/2000/svg" xmlns:xlink="http://www.w3.org/1999/xlink" x="0px" y="0px"
	 viewBox="0 0 100 100" style="enable-background:new 0 0 100 100;" xml:space="preserve">
<path d="M76.7,33.1c-2.1-2.5-6-3.5-13.3-3.5H36.6c-7.5,0-11.5,1.1-13.6,3.7s-2,6.4-2,11.7v10c0,10.2,2.4,15.4,15.6,15.4h26.8
	c6.4,0,10-0.9,12.2-3.1S79,61.4,79,55V45C79,39.4,78.8,35.6,76.7,33.1z M58.2,51.4l-12.2,6.4c-0.3,0.1-0.6,0.2-0.9,0.2
	c-0.4,0-0.7-0.1-1-0.3c-0.6-0.3-0.9-0.9-0.9-1.6V43.4c0-0.7,0.4-1.3,0.9-1.6c0.6-0.3,1.3-0.4,1.8-0.1l12.2,6.3
	c0.9,0.5,1.3,1.6,0.8,2.5C58.9,50.9,58.6,51.2,58.2,51.4z"/>
</svg>
